<mxfile host="app.diagrams.net" agent="Mozilla/5.0 (Windows NT 10.0; Win64; x64) AppleWebKit/537.36 (KHTML, like Gecko) Chrome/137.0.0.0 Safari/537.36 Edg/137.0.0.0" version="27.1.3">
  <diagram name="第 1 页" id="SNnUAwdkBXaZDfroSAXm">
    <mxGraphModel dx="1546" dy="836" grid="1" gridSize="10" guides="1" tooltips="1" connect="1" arrows="1" fold="1" page="1" pageScale="1" pageWidth="1200" pageHeight="1920" math="0" shadow="0">
      <root>
        <mxCell id="0" />
        <mxCell id="1" parent="0" />
        <mxCell id="qFn1gYB5s_-sQzseoCl5-25" style="rounded=0;orthogonalLoop=1;jettySize=auto;html=1;endArrow=none;startFill=0;fontFamily=宋体;fontSize=18;" parent="1" source="qFn1gYB5s_-sQzseoCl5-1" target="qFn1gYB5s_-sQzseoCl5-6" edge="1">
          <mxGeometry relative="1" as="geometry" />
        </mxCell>
        <mxCell id="qFn1gYB5s_-sQzseoCl5-26" style="rounded=0;orthogonalLoop=1;jettySize=auto;html=1;endArrow=none;startFill=0;fontFamily=宋体;fontSize=18;" parent="1" source="qFn1gYB5s_-sQzseoCl5-1" target="qFn1gYB5s_-sQzseoCl5-20" edge="1">
          <mxGeometry relative="1" as="geometry" />
        </mxCell>
        <mxCell id="qFn1gYB5s_-sQzseoCl5-27" style="rounded=0;orthogonalLoop=1;jettySize=auto;html=1;endArrow=none;startFill=0;fontFamily=宋体;fontSize=18;" parent="1" source="qFn1gYB5s_-sQzseoCl5-1" target="qFn1gYB5s_-sQzseoCl5-7" edge="1">
          <mxGeometry relative="1" as="geometry" />
        </mxCell>
        <mxCell id="qFn1gYB5s_-sQzseoCl5-29" style="rounded=0;orthogonalLoop=1;jettySize=auto;html=1;entryX=0;entryY=1;entryDx=0;entryDy=0;endArrow=none;startFill=0;fontFamily=宋体;fontSize=18;" parent="1" source="qFn1gYB5s_-sQzseoCl5-1" target="qFn1gYB5s_-sQzseoCl5-9" edge="1">
          <mxGeometry relative="1" as="geometry" />
        </mxCell>
        <mxCell id="qFn1gYB5s_-sQzseoCl5-30" style="rounded=0;orthogonalLoop=1;jettySize=auto;html=1;endArrow=none;startFill=0;fontFamily=宋体;fontSize=18;" parent="1" source="qFn1gYB5s_-sQzseoCl5-1" target="qFn1gYB5s_-sQzseoCl5-22" edge="1">
          <mxGeometry relative="1" as="geometry" />
        </mxCell>
        <mxCell id="qFn1gYB5s_-sQzseoCl5-31" style="rounded=0;orthogonalLoop=1;jettySize=auto;html=1;endArrow=none;startFill=0;fontFamily=宋体;fontSize=18;" parent="1" source="qFn1gYB5s_-sQzseoCl5-1" target="qFn1gYB5s_-sQzseoCl5-10" edge="1">
          <mxGeometry relative="1" as="geometry" />
        </mxCell>
        <mxCell id="qFn1gYB5s_-sQzseoCl5-32" style="rounded=0;orthogonalLoop=1;jettySize=auto;html=1;endArrow=none;startFill=0;fontFamily=宋体;fontSize=18;" parent="1" source="qFn1gYB5s_-sQzseoCl5-1" target="qFn1gYB5s_-sQzseoCl5-11" edge="1">
          <mxGeometry relative="1" as="geometry" />
        </mxCell>
        <mxCell id="qFn1gYB5s_-sQzseoCl5-33" style="rounded=0;orthogonalLoop=1;jettySize=auto;html=1;endArrow=none;startFill=0;fontFamily=宋体;fontSize=18;" parent="1" source="qFn1gYB5s_-sQzseoCl5-1" target="qFn1gYB5s_-sQzseoCl5-12" edge="1">
          <mxGeometry relative="1" as="geometry" />
        </mxCell>
        <mxCell id="qFn1gYB5s_-sQzseoCl5-34" style="rounded=0;orthogonalLoop=1;jettySize=auto;html=1;endArrow=none;startFill=0;fontFamily=宋体;fontSize=18;" parent="1" source="qFn1gYB5s_-sQzseoCl5-1" target="qFn1gYB5s_-sQzseoCl5-13" edge="1">
          <mxGeometry relative="1" as="geometry" />
        </mxCell>
        <mxCell id="qFn1gYB5s_-sQzseoCl5-35" style="rounded=0;orthogonalLoop=1;jettySize=auto;html=1;endArrow=none;startFill=0;fontFamily=宋体;fontSize=18;" parent="1" source="qFn1gYB5s_-sQzseoCl5-1" target="qFn1gYB5s_-sQzseoCl5-14" edge="1">
          <mxGeometry relative="1" as="geometry" />
        </mxCell>
        <mxCell id="qFn1gYB5s_-sQzseoCl5-36" style="rounded=0;orthogonalLoop=1;jettySize=auto;html=1;endArrow=none;startFill=0;fontFamily=宋体;fontSize=18;" parent="1" source="qFn1gYB5s_-sQzseoCl5-1" target="qFn1gYB5s_-sQzseoCl5-15" edge="1">
          <mxGeometry relative="1" as="geometry" />
        </mxCell>
        <mxCell id="qFn1gYB5s_-sQzseoCl5-37" style="rounded=0;orthogonalLoop=1;jettySize=auto;html=1;endArrow=none;startFill=0;fontFamily=宋体;fontSize=18;" parent="1" source="qFn1gYB5s_-sQzseoCl5-1" target="qFn1gYB5s_-sQzseoCl5-16" edge="1">
          <mxGeometry relative="1" as="geometry" />
        </mxCell>
        <mxCell id="qFn1gYB5s_-sQzseoCl5-38" style="rounded=0;orthogonalLoop=1;jettySize=auto;html=1;endArrow=none;startFill=0;fontFamily=宋体;fontSize=18;" parent="1" source="qFn1gYB5s_-sQzseoCl5-1" target="qFn1gYB5s_-sQzseoCl5-17" edge="1">
          <mxGeometry relative="1" as="geometry" />
        </mxCell>
        <mxCell id="qFn1gYB5s_-sQzseoCl5-39" style="rounded=0;orthogonalLoop=1;jettySize=auto;html=1;endArrow=none;startFill=0;fontFamily=宋体;fontSize=18;" parent="1" source="qFn1gYB5s_-sQzseoCl5-1" target="qFn1gYB5s_-sQzseoCl5-18" edge="1">
          <mxGeometry relative="1" as="geometry" />
        </mxCell>
        <mxCell id="qFn1gYB5s_-sQzseoCl5-41" style="rounded=0;orthogonalLoop=1;jettySize=auto;html=1;endArrow=none;startFill=0;fontFamily=宋体;fontSize=18;" parent="1" source="qFn1gYB5s_-sQzseoCl5-1" target="qFn1gYB5s_-sQzseoCl5-4" edge="1">
          <mxGeometry relative="1" as="geometry" />
        </mxCell>
        <mxCell id="qFn1gYB5s_-sQzseoCl5-42" style="rounded=0;orthogonalLoop=1;jettySize=auto;html=1;endArrow=none;startFill=0;fontFamily=宋体;fontSize=18;" parent="1" source="qFn1gYB5s_-sQzseoCl5-1" target="qFn1gYB5s_-sQzseoCl5-19" edge="1">
          <mxGeometry relative="1" as="geometry" />
        </mxCell>
        <mxCell id="qFn1gYB5s_-sQzseoCl5-43" style="rounded=0;orthogonalLoop=1;jettySize=auto;html=1;endArrow=none;startFill=0;fontFamily=宋体;fontSize=18;" parent="1" source="qFn1gYB5s_-sQzseoCl5-1" target="qFn1gYB5s_-sQzseoCl5-3" edge="1">
          <mxGeometry relative="1" as="geometry" />
        </mxCell>
        <mxCell id="qFn1gYB5s_-sQzseoCl5-45" style="rounded=0;orthogonalLoop=1;jettySize=auto;html=1;endArrow=none;startFill=0;fontFamily=宋体;fontSize=18;" parent="1" source="qFn1gYB5s_-sQzseoCl5-1" target="qFn1gYB5s_-sQzseoCl5-2" edge="1">
          <mxGeometry relative="1" as="geometry" />
        </mxCell>
        <mxCell id="qFn1gYB5s_-sQzseoCl5-46" style="rounded=0;orthogonalLoop=1;jettySize=auto;html=1;endArrow=none;startFill=0;fontFamily=宋体;fontSize=18;" parent="1" source="qFn1gYB5s_-sQzseoCl5-1" target="qFn1gYB5s_-sQzseoCl5-21" edge="1">
          <mxGeometry relative="1" as="geometry" />
        </mxCell>
        <mxCell id="qFn1gYB5s_-sQzseoCl5-47" style="rounded=0;orthogonalLoop=1;jettySize=auto;html=1;endArrow=none;startFill=0;fontFamily=宋体;fontSize=18;" parent="1" source="qFn1gYB5s_-sQzseoCl5-1" target="qFn1gYB5s_-sQzseoCl5-18" edge="1">
          <mxGeometry relative="1" as="geometry" />
        </mxCell>
        <mxCell id="qFn1gYB5s_-sQzseoCl5-49" style="rounded=0;orthogonalLoop=1;jettySize=auto;html=1;endArrow=none;startFill=0;fontFamily=宋体;fontSize=18;" parent="1" source="qFn1gYB5s_-sQzseoCl5-1" target="qFn1gYB5s_-sQzseoCl5-23" edge="1">
          <mxGeometry relative="1" as="geometry" />
        </mxCell>
        <mxCell id="fnJE5hZN3UuU3zBri2Ej-3" style="rounded=0;orthogonalLoop=1;jettySize=auto;html=1;endArrow=none;startFill=0;fontSize=18;" parent="1" source="qFn1gYB5s_-sQzseoCl5-1" target="fnJE5hZN3UuU3zBri2Ej-2" edge="1">
          <mxGeometry relative="1" as="geometry" />
        </mxCell>
        <mxCell id="fnJE5hZN3UuU3zBri2Ej-4" style="rounded=0;orthogonalLoop=1;jettySize=auto;html=1;endArrow=none;startFill=0;fontSize=18;" parent="1" source="qFn1gYB5s_-sQzseoCl5-1" target="fnJE5hZN3UuU3zBri2Ej-1" edge="1">
          <mxGeometry relative="1" as="geometry" />
        </mxCell>
        <mxCell id="qFn1gYB5s_-sQzseoCl5-1" value="电动车信息" style="rounded=0;whiteSpace=wrap;html=1;fontFamily=宋体;fontSize=18;" parent="1" vertex="1">
          <mxGeometry x="550" y="350" width="110" height="60" as="geometry" />
        </mxCell>
        <mxCell id="qFn1gYB5s_-sQzseoCl5-2" value="&lt;p class=&quot;MsoNormal&quot;&gt;&lt;span&gt;姓名&lt;/span&gt;&lt;/p&gt;" style="ellipse;whiteSpace=wrap;html=1;fontFamily=宋体;fontSize=18;" parent="1" vertex="1">
          <mxGeometry x="290" y="420" width="90" height="50" as="geometry" />
        </mxCell>
        <mxCell id="qFn1gYB5s_-sQzseoCl5-3" value="&lt;p class=&quot;MsoNormal&quot;&gt;&lt;span&gt;身份证&lt;/span&gt;&lt;/p&gt;" style="ellipse;whiteSpace=wrap;html=1;fontFamily=宋体;fontSize=18;" parent="1" vertex="1">
          <mxGeometry x="270" y="300" width="90" height="50" as="geometry" />
        </mxCell>
        <mxCell id="qFn1gYB5s_-sQzseoCl5-4" value="&lt;p class=&quot;MsoNormal&quot;&gt;&lt;span&gt;审核回复&lt;/span&gt;&lt;/p&gt;" style="ellipse;whiteSpace=wrap;html=1;fontFamily=宋体;fontSize=18;" parent="1" vertex="1">
          <mxGeometry x="320" y="180" width="90" height="50" as="geometry" />
        </mxCell>
        <mxCell id="qFn1gYB5s_-sQzseoCl5-5" value="&lt;p class=&quot;MsoNormal&quot;&gt;&lt;span&gt;创建时间&lt;/span&gt;&lt;/p&gt;" style="ellipse;whiteSpace=wrap;html=1;fontFamily=宋体;fontSize=18;" parent="1" vertex="1">
          <mxGeometry x="440" y="90" width="90" height="50" as="geometry" />
        </mxCell>
        <mxCell id="qFn1gYB5s_-sQzseoCl5-6" value="&lt;p class=&quot;MsoNormal&quot;&gt;&lt;span&gt;&lt;font face=&quot;宋体&quot;&gt;订单&lt;/font&gt; &lt;font face=&quot;宋体&quot;&gt;ID&lt;/font&gt;&lt;/span&gt;&lt;/p&gt;" style="ellipse;whiteSpace=wrap;html=1;fontFamily=宋体;fontSize=18;" parent="1" vertex="1">
          <mxGeometry x="530" y="60" width="90" height="50" as="geometry" />
        </mxCell>
        <mxCell id="qFn1gYB5s_-sQzseoCl5-7" value="&lt;p class=&quot;MsoNormal&quot;&gt;&lt;span&gt;车牌号&lt;/span&gt;&lt;/p&gt;" style="ellipse;whiteSpace=wrap;html=1;fontFamily=宋体;fontSize=18;" parent="1" vertex="1">
          <mxGeometry x="730" y="100" width="90" height="50" as="geometry" />
        </mxCell>
        <mxCell id="qFn1gYB5s_-sQzseoCl5-8" value="&lt;p class=&quot;MsoNormal&quot;&gt;&lt;span&gt;电动车型号&lt;/span&gt;&lt;/p&gt;" style="ellipse;whiteSpace=wrap;html=1;fontFamily=宋体;fontSize=18;" parent="1" vertex="1">
          <mxGeometry x="800" y="140" width="90" height="50" as="geometry" />
        </mxCell>
        <mxCell id="qFn1gYB5s_-sQzseoCl5-9" value="&lt;p class=&quot;MsoNormal&quot;&gt;&lt;span&gt;电动车分类&lt;/span&gt;&lt;/p&gt;" style="ellipse;whiteSpace=wrap;html=1;fontFamily=宋体;fontSize=18;" parent="1" vertex="1">
          <mxGeometry x="840" y="210" width="90" height="50" as="geometry" />
        </mxCell>
        <mxCell id="qFn1gYB5s_-sQzseoCl5-10" value="&lt;p class=&quot;MsoNormal&quot;&gt;&lt;span&gt;封面&lt;/span&gt;&lt;/p&gt;" style="ellipse;whiteSpace=wrap;html=1;fontFamily=宋体;fontSize=18;" parent="1" vertex="1">
          <mxGeometry x="870" y="340" width="90" height="50" as="geometry" />
        </mxCell>
        <mxCell id="qFn1gYB5s_-sQzseoCl5-11" value="&lt;p class=&quot;MsoNormal&quot;&gt;&lt;span&gt;租金&lt;/span&gt;&lt;/p&gt;" style="ellipse;whiteSpace=wrap;html=1;fontFamily=宋体;fontSize=18;" parent="1" vertex="1">
          <mxGeometry x="870" y="400" width="90" height="50" as="geometry" />
        </mxCell>
        <mxCell id="qFn1gYB5s_-sQzseoCl5-12" value="&lt;p class=&quot;MsoNormal&quot;&gt;&lt;span&gt;起租日期&lt;/span&gt;&lt;/p&gt;" style="ellipse;whiteSpace=wrap;html=1;fontFamily=宋体;fontSize=18;" parent="1" vertex="1">
          <mxGeometry x="850" y="460" width="90" height="50" as="geometry" />
        </mxCell>
        <mxCell id="qFn1gYB5s_-sQzseoCl5-13" value="&lt;p class=&quot;MsoNormal&quot;&gt;&lt;span&gt;归还日期&lt;/span&gt;&lt;/p&gt;" style="ellipse;whiteSpace=wrap;html=1;fontFamily=宋体;fontSize=18;" parent="1" vertex="1">
          <mxGeometry x="840" y="530" width="90" height="50" as="geometry" />
        </mxCell>
        <mxCell id="qFn1gYB5s_-sQzseoCl5-14" value="&lt;p class=&quot;MsoNormal&quot;&gt;&lt;span&gt;押金&lt;/span&gt;&lt;/p&gt;" style="ellipse;whiteSpace=wrap;html=1;fontFamily=宋体;fontSize=18;" parent="1" vertex="1">
          <mxGeometry x="670" y="620" width="90" height="50" as="geometry" />
        </mxCell>
        <mxCell id="qFn1gYB5s_-sQzseoCl5-15" value="&lt;p class=&quot;MsoNormal&quot;&gt;&lt;span&gt;总价&lt;/span&gt;&lt;/p&gt;" style="ellipse;whiteSpace=wrap;html=1;fontFamily=宋体;fontSize=18;" parent="1" vertex="1">
          <mxGeometry x="570" y="640" width="90" height="50" as="geometry" />
        </mxCell>
        <mxCell id="qFn1gYB5s_-sQzseoCl5-16" value="&lt;p class=&quot;MsoNormal&quot;&gt;&lt;span&gt;租赁状态&lt;/span&gt;&lt;/p&gt;" style="ellipse;whiteSpace=wrap;html=1;fontFamily=宋体;fontSize=18;" parent="1" vertex="1">
          <mxGeometry x="470" y="620" width="90" height="50" as="geometry" />
        </mxCell>
        <mxCell id="qFn1gYB5s_-sQzseoCl5-17" value="&lt;p class=&quot;MsoNormal&quot;&gt;&lt;span&gt;下单时间&lt;/span&gt;&lt;/p&gt;" style="ellipse;whiteSpace=wrap;html=1;fontFamily=宋体;fontSize=18;" parent="1" vertex="1">
          <mxGeometry x="390" y="590" width="90" height="50" as="geometry" />
        </mxCell>
        <mxCell id="qFn1gYB5s_-sQzseoCl5-18" value="&lt;p class=&quot;MsoNormal&quot;&gt;&lt;span&gt;备注&lt;/span&gt;&lt;/p&gt;" style="ellipse;whiteSpace=wrap;html=1;fontFamily=宋体;fontSize=18;" parent="1" vertex="1">
          <mxGeometry x="330" y="540" width="90" height="50" as="geometry" />
        </mxCell>
        <mxCell id="qFn1gYB5s_-sQzseoCl5-19" value="&lt;p class=&quot;MsoNormal&quot;&gt;&lt;span&gt;是否审核&lt;/span&gt;&lt;/p&gt;" style="ellipse;whiteSpace=wrap;html=1;fontFamily=宋体;fontSize=18;" parent="1" vertex="1">
          <mxGeometry x="290" y="240" width="90" height="50" as="geometry" />
        </mxCell>
        <mxCell id="qFn1gYB5s_-sQzseoCl5-20" value="&lt;p class=&quot;MsoNormal&quot;&gt;&lt;span&gt;订单编号&lt;/span&gt;&lt;/p&gt;" style="ellipse;whiteSpace=wrap;html=1;fontFamily=宋体;fontSize=18;" parent="1" vertex="1">
          <mxGeometry x="630" y="80" width="90" height="50" as="geometry" />
        </mxCell>
        <mxCell id="qFn1gYB5s_-sQzseoCl5-21" value="&lt;p class=&quot;MsoNormal&quot;&gt;&lt;span&gt;账号&lt;/span&gt;&lt;/p&gt;" style="ellipse;whiteSpace=wrap;html=1;fontFamily=宋体;fontSize=18;" parent="1" vertex="1">
          <mxGeometry x="300" y="480" width="90" height="50" as="geometry" />
        </mxCell>
        <mxCell id="qFn1gYB5s_-sQzseoCl5-22" value="&lt;p class=&quot;MsoNormal&quot;&gt;&lt;span&gt;品牌&lt;/span&gt;&lt;/p&gt;" style="ellipse;whiteSpace=wrap;html=1;fontFamily=宋体;fontSize=18;" parent="1" vertex="1">
          <mxGeometry x="870" y="270" width="90" height="50" as="geometry" />
        </mxCell>
        <mxCell id="qFn1gYB5s_-sQzseoCl5-23" value="&lt;p class=&quot;MsoNormal&quot;&gt;&lt;span&gt;手机&lt;/span&gt;&lt;/p&gt;" style="ellipse;whiteSpace=wrap;html=1;fontFamily=宋体;fontSize=18;" parent="1" vertex="1">
          <mxGeometry x="280" y="360" width="90" height="50" as="geometry" />
        </mxCell>
        <mxCell id="qFn1gYB5s_-sQzseoCl5-28" style="rounded=0;orthogonalLoop=1;jettySize=auto;html=1;entryX=0.24;entryY=0.992;entryDx=0;entryDy=0;entryPerimeter=0;endArrow=none;startFill=0;fontFamily=宋体;fontSize=18;" parent="1" source="qFn1gYB5s_-sQzseoCl5-1" target="qFn1gYB5s_-sQzseoCl5-8" edge="1">
          <mxGeometry relative="1" as="geometry" />
        </mxCell>
        <mxCell id="qFn1gYB5s_-sQzseoCl5-40" style="rounded=0;orthogonalLoop=1;jettySize=auto;html=1;entryX=0.711;entryY=0.928;entryDx=0;entryDy=0;entryPerimeter=0;endArrow=none;startFill=0;fontFamily=宋体;fontSize=18;" parent="1" source="qFn1gYB5s_-sQzseoCl5-1" target="qFn1gYB5s_-sQzseoCl5-5" edge="1">
          <mxGeometry relative="1" as="geometry" />
        </mxCell>
        <mxCell id="fnJE5hZN3UuU3zBri2Ej-1" value="&lt;p class=&quot;MsoNormal&quot;&gt;&lt;span&gt;租赁天数&lt;/span&gt;&lt;/p&gt;" style="ellipse;whiteSpace=wrap;html=1;fontFamily=宋体;fontSize=18;" parent="1" vertex="1">
          <mxGeometry x="770" y="580" width="90" height="50" as="geometry" />
        </mxCell>
        <mxCell id="fnJE5hZN3UuU3zBri2Ej-2" value="&lt;p class=&quot;MsoNormal&quot;&gt;&lt;span&gt;是否支付&lt;/span&gt;&lt;/p&gt;" style="ellipse;whiteSpace=wrap;html=1;fontFamily=宋体;fontSize=18;" parent="1" vertex="1">
          <mxGeometry x="350" y="120" width="90" height="50" as="geometry" />
        </mxCell>
      </root>
    </mxGraphModel>
  </diagram>
</mxfile>
